<mxfile host="app.diagrams.net" modified="2023-11-30T14:20:56.985Z" agent="Mozilla/5.0 (Windows NT 10.0; Win64; x64) AppleWebKit/537.36 (KHTML, like Gecko) Chrome/119.0.0.0 Safari/537.36 Edg/119.0.0.0" etag="aC8tNGo0vzl6jWOmvaVH" version="22.1.5" type="github">
  <diagram name="第 1 页" id="5hUh-e7LYVzBwPmCk2DY">
    <mxGraphModel dx="1348" dy="1284" grid="1" gridSize="10" guides="1" tooltips="1" connect="1" arrows="1" fold="1" page="1" pageScale="1" pageWidth="827" pageHeight="1169" math="0" shadow="0">
      <root>
        <mxCell id="0" />
        <mxCell id="1" parent="0" />
        <mxCell id="-2lI1kvxWh023HJQ2cCv-26" style="edgeStyle=orthogonalEdgeStyle;rounded=0;orthogonalLoop=1;jettySize=auto;html=1;exitX=1;exitY=0.5;exitDx=0;exitDy=0;entryX=1;entryY=0.5;entryDx=0;entryDy=0;" edge="1" parent="1" source="-2lI1kvxWh023HJQ2cCv-1" target="-2lI1kvxWh023HJQ2cCv-2">
          <mxGeometry relative="1" as="geometry">
            <Array as="points">
              <mxPoint x="400" y="120" />
              <mxPoint x="400" y="240" />
            </Array>
          </mxGeometry>
        </mxCell>
        <mxCell id="-2lI1kvxWh023HJQ2cCv-1" value="&lt;font style=&quot;font-size: 22px;&quot;&gt;Agent&lt;/font&gt;" style="rounded=1;whiteSpace=wrap;html=1;" vertex="1" parent="1">
          <mxGeometry x="200" y="80" width="160" height="80" as="geometry" />
        </mxCell>
        <mxCell id="-2lI1kvxWh023HJQ2cCv-2" value="&lt;font style=&quot;font-size: 22px;&quot;&gt;Environment&lt;/font&gt;" style="rounded=1;whiteSpace=wrap;html=1;" vertex="1" parent="1">
          <mxGeometry x="200" y="200" width="160" height="80" as="geometry" />
        </mxCell>
        <mxCell id="-2lI1kvxWh023HJQ2cCv-24" style="edgeStyle=orthogonalEdgeStyle;rounded=0;orthogonalLoop=1;jettySize=auto;html=1;exitX=0.25;exitY=0.5;exitDx=0;exitDy=0;exitPerimeter=0;entryX=0;entryY=0.75;entryDx=0;entryDy=0;" edge="1" parent="1" source="-2lI1kvxWh023HJQ2cCv-15" target="-2lI1kvxWh023HJQ2cCv-1">
          <mxGeometry relative="1" as="geometry">
            <Array as="points">
              <mxPoint x="120" y="220" />
              <mxPoint x="120" y="140" />
            </Array>
          </mxGeometry>
        </mxCell>
        <mxCell id="-2lI1kvxWh023HJQ2cCv-25" style="edgeStyle=orthogonalEdgeStyle;rounded=0;orthogonalLoop=1;jettySize=auto;html=1;exitX=0.75;exitY=0.5;exitDx=0;exitDy=0;exitPerimeter=0;entryX=0;entryY=0.25;entryDx=0;entryDy=0;" edge="1" parent="1" source="-2lI1kvxWh023HJQ2cCv-15" target="-2lI1kvxWh023HJQ2cCv-1">
          <mxGeometry relative="1" as="geometry">
            <Array as="points">
              <mxPoint x="80" y="260" />
              <mxPoint x="80" y="100" />
            </Array>
          </mxGeometry>
        </mxCell>
        <mxCell id="-2lI1kvxWh023HJQ2cCv-15" value="" style="line;strokeWidth=2;direction=south;html=1;dashed=1;" vertex="1" parent="1">
          <mxGeometry x="155" y="200" width="10" height="80" as="geometry" />
        </mxCell>
        <mxCell id="-2lI1kvxWh023HJQ2cCv-17" style="edgeStyle=orthogonalEdgeStyle;rounded=0;orthogonalLoop=1;jettySize=auto;html=1;exitX=0;exitY=0.25;exitDx=0;exitDy=0;entryX=0.25;entryY=0.5;entryDx=0;entryDy=0;entryPerimeter=0;" edge="1" parent="1" source="-2lI1kvxWh023HJQ2cCv-2" target="-2lI1kvxWh023HJQ2cCv-15">
          <mxGeometry relative="1" as="geometry" />
        </mxCell>
        <mxCell id="-2lI1kvxWh023HJQ2cCv-19" style="edgeStyle=orthogonalEdgeStyle;rounded=0;orthogonalLoop=1;jettySize=auto;html=1;exitX=0;exitY=0.75;exitDx=0;exitDy=0;entryX=0.75;entryY=0.5;entryDx=0;entryDy=0;entryPerimeter=0;" edge="1" parent="1" source="-2lI1kvxWh023HJQ2cCv-2" target="-2lI1kvxWh023HJQ2cCv-15">
          <mxGeometry relative="1" as="geometry" />
        </mxCell>
      </root>
    </mxGraphModel>
  </diagram>
</mxfile>
